<?xml version="1.0" standalone="no"?>
<!DOCTYPE svg PUBLIC "-//W3C//DTD SVG 20010904//EN"
 "http://www.w3.org/TR/2001/REC-SVG-20010904/DTD/svg10.dtd">
<svg version="1.0" xmlns="http://www.w3.org/2000/svg"
 width="512.000000pt" height="512.000000pt" viewBox="0 0 512.000000 512.000000"
 preserveAspectRatio="xMidYMid meet">

<g transform="translate(0.000000,512.000000) scale(0.100000,-0.100000)"
fill="#fff" stroke="none">
<path d="M2517 4868 c-9 -7 -95 -150 -192 -316 -188 -326 -196 -348 -152 -390
22 -20 33 -22 165 -22 l142 0 -2 -191 -3 -191 -160 -93 c-88 -50 -353 -203
-590 -339 -236 -137 -438 -257 -447 -268 -17 -19 -18 -68 -18 -717 l0 -697
-160 -92 c-88 -51 -165 -90 -170 -87 -5 3 -35 51 -66 107 -68 121 -84 138
-126 138 -55 -1 -30 35 -320 -465 -54 -93 -98 -180 -98 -192 0 -12 11 -35 24
-50 l24 -28 365 0 365 0 26 24 c15 14 26 35 26 51 0 14 -31 80 -69 146 -38 65
-68 120 -67 120 8 10 318 184 326 184 6 0 30 -11 53 -24 23 -13 288 -166 589
-340 387 -223 556 -316 578 -316 30 0 52 12 883 493 l338 196 159 -92 c88 -51
159 -96 160 -101 0 -5 -29 -60 -65 -121 -72 -124 -79 -158 -42 -193 23 -22 27
-22 394 -22 l372 0 20 26 c12 15 21 36 21 48 0 12 -55 116 -122 231 -66 116
-147 255 -179 310 -60 104 -86 127 -135 117 -30 -6 -37 -14 -110 -141 -34 -58
-66 -106 -70 -106 -5 0 -80 41 -166 90 l-158 90 0 696 c0 673 -1 696 -19 716
-11 11 -109 72 -218 136 -166 95 -657 380 -915 529 l-68 39 0 189 0 190 143 0
c140 0 144 1 167 25 13 14 23 37 23 52 0 31 -331 616 -365 646 -24 20 -67 22
-91 5z m141 -398 c50 -87 92 -162 92 -165 0 -3 -86 -5 -191 -5 -105 0 -189 4
-187 9 9 24 183 321 188 321 3 0 47 -72 98 -160z m83 -953 c97 -56 352 -203
567 -327 l391 -225 0 -660 1 -660 -398 -229 c-218 -127 -475 -275 -569 -329
l-172 -100 -413 238 c-227 131 -484 279 -570 329 l-158 91 1 660 0 660 567
327 c312 180 569 327 572 327 3 0 84 -46 181 -102z m-1902 -2221 c50 -88 89
-161 87 -163 -1 -2 -89 -2 -195 -1 l-191 3 96 168 c53 93 100 165 104 160 4
-4 49 -80 99 -167z m3650 -4 c46 -79 81 -146 78 -148 -2 -3 -88 -3 -190 -2
l-186 3 87 150 c48 83 91 156 96 163 10 17 10 17 115 -166z"/>
<path d="M1520 2930 c-30 -30 -36 -68 -14 -97 11 -14 231 -148 497 -301 l477
-276 0 -554 c0 -401 3 -559 12 -575 27 -52 83 -62 123 -22 l25 24 0 563 0 563
468 270 c257 148 479 282 495 296 16 16 27 38 27 54 0 35 -41 75 -78 75 -19 0
-183 -90 -498 -271 -258 -150 -476 -274 -486 -276 -9 -3 -89 37 -180 90 -846
492 -824 481 -868 437z"/>
<path d="M3433 2538 c-14 -7 -75 -100 -159 -247 -75 -130 -214 -371 -310 -537
-96 -165 -174 -310 -174 -321 0 -11 9 -32 21 -47 27 -35 86 -36 116 -3 31 34
613 1046 619 1077 11 53 -62 103 -113 78z"/>
<path d="M2904 2227 c-16 -14 -49 -63 -73 -109 -42 -79 -44 -87 -32 -115 22
-53 86 -69 124 -30 34 33 107 171 107 200 0 34 -29 66 -66 73 -23 4 -37 0 -60
-19z"/>
<path d="M3413 1928 c-31 -35 -103 -172 -103 -197 0 -54 53 -91 103 -72 37 14
137 174 137 219 0 11 -9 31 -21 46 -27 35 -86 36 -116 4z"/>
<path d="M1815 4236 c-730 -301 -1185 -882 -1300 -1661 -29 -197 -17 -539 25
-696 19 -69 88 -92 135 -44 29 28 30 40 10 136 -9 40 -19 132 -24 204 -23 338
51 693 209 1010 94 187 179 304 335 460 211 211 390 326 737 472 47 20 66 60
48 103 -25 60 -61 63 -175 16z"/>
<path d="M3142 4250 c-31 -29 -38 -65 -18 -95 18 -27 38 -38 151 -81 39 -14
122 -53 185 -86 349 -179 628 -474 816 -863 93 -191 150 -383 179 -600 12 -91
6 -347 -10 -460 -30 -197 -30 -209 -4 -234 31 -28 79 -28 107 2 73 77 96 612
38 879 -117 541 -436 1021 -874 1315 -153 103 -457 243 -526 243 -12 0 -32 -9
-44 -20z"/>
<path d="M1189 900 c-26 -15 -41 -62 -30 -93 23 -59 278 -240 476 -337 516
-254 1112 -289 1630 -95 226 85 523 261 663 392 40 39 44 88 9 121 -41 38 -75
29 -168 -45 -225 -178 -493 -313 -749 -378 -569 -144 -1229 6 -1679 383 -75
63 -112 76 -152 52z"/>
</g>
</svg>
