<?xml version="1.0" standalone="no"?>
<!DOCTYPE svg PUBLIC "-//W3C//DTD SVG 20010904//EN"
 "http://www.w3.org/TR/2001/REC-SVG-20010904/DTD/svg10.dtd">
<svg version="1.0" xmlns="http://www.w3.org/2000/svg"
 width="512.000000pt" height="512.000000pt" viewBox="0 0 512.000000 512.000000"
 preserveAspectRatio="xMidYMid meet">

<g transform="translate(0.000000,512.000000) scale(0.100000,-0.100000)"
fill="#fff" stroke="none">
<path d="M3455 4777 c-119 -68 -497 -335 -706 -498 -874 -681 -1684 -1542
-2283 -2426 -160 -236 -164 -248 -127 -309 27 -44 77 -60 124 -40 57 24 384
247 616 422 408 306 699 560 1127 988 427 428 679 715 988 1126 174 231 398
559 422 617 20 47 4 97 -40 124 -41 25 -72 24 -121 -4z m-411 -584 c-447 -608
-1148 -1336 -1797 -1866 -169 -138 -390 -307 -395 -302 -9 9 326 432 503 635
380 437 851 897 1289 1260 161 134 437 349 449 350 4 0 -18 -35 -49 -77z"/>
<path d="M4260 4424 c-1271 -864 -2702 -2296 -3564 -3564 -52 -76 -57 -89 -53
-124 7 -50 43 -86 93 -93 45 -6 53 -1 354 216 1213 872 2526 2212 3334 3401
52 76 57 89 53 124 -7 50 -43 86 -93 93 -35 4 -48 -1 -124 -53z m-436 -621
c-340 -440 -685 -826 -1183 -1324 -500 -499 -894 -851 -1326 -1185 l-90 -69
69 90 c586 759 1484 1677 2261 2311 166 135 328 263 333 264 2 0 -27 -39 -64
-87z"/>
<path d="M4653 3615 c-56 -24 -391 -254 -613 -421 -410 -308 -696 -560 -1126
-989 -426 -426 -679 -714 -988 -1125 -174 -231 -398 -559 -422 -617 -20 -47
-4 -97 40 -124 59 -36 74 -31 276 104 551 368 1030 766 1560 1297 524 524 896
970 1275 1528 123 183 145 221 145 252 0 37 -30 81 -65 96 -41 17 -42 17 -82
-1z m-444 -607 c-511 -677 -1190 -1376 -1849 -1903 -187 -149 -326 -255 -335
-255 -16 0 273 368 454 580 355 413 825 881 1246 1241 177 151 536 431 543
424 2 -2 -24 -41 -59 -87z"/>
</g>
</svg>
