<svg width="16" height="16" viewBox="0 0 16 16" fill="none" xmlns="http://www.w3.org/2000/svg">
<path d="M2 8.5H14C14.146 8.5 14.2658 8.45317 14.3595 8.3595C14.4532 8.26583 14.5 8.146 14.5 8C14.5 7.854 14.4532 7.73417 14.3595 7.6405C14.2658 7.54683 14.146 7.5 14 7.5H2C1.854 7.5 1.73417 7.54683 1.6405 7.6405C1.54683 7.73417 1.5 7.854 1.5 8C1.5 8.146 1.54683 8.26583 1.6405 8.3595C1.73417 8.45317 1.854 8.5 2 8.5Z" fill="#08080A" fill-opacity="0.96"/>
<path d="M2 4H14C14.146 4 14.2658 3.95317 14.3595 3.8595C14.4532 3.76583 14.5 3.646 14.5 3.5C14.5 3.354 14.4532 3.23417 14.3595 3.1405C14.2658 3.04683 14.146 3 14 3H2C1.854 3 1.73417 3.04683 1.6405 3.1405C1.54683 3.23417 1.5 3.354 1.5 3.5C1.5 3.646 1.54683 3.76583 1.6405 3.8595C1.73417 3.95317 1.854 4 2 4Z" fill="#08080A" fill-opacity="0.96"/>
<path d="M2 13H14C14.146 13 14.2658 12.9532 14.3595 12.8595C14.4532 12.7658 14.5 12.646 14.5 12.5C14.5 12.354 14.4532 12.2342 14.3595 12.1405C14.2658 12.0468 14.146 12 14 12H2C1.854 12 1.73417 12.0468 1.6405 12.1405C1.54683 12.2342 1.5 12.354 1.5 12.5C1.5 12.646 1.54683 12.7658 1.6405 12.8595C1.73417 12.9532 1.854 13 2 13Z" fill="#08080A" fill-opacity="0.96"/>
</svg>
