<svg width="12" height="14" viewBox="0 0 12 14" fill="none" xmlns="http://www.w3.org/2000/svg">
<path d="M1 10.5H11V1H2C1.71867 1.01033 1.48433 1.10933 1.297 1.297C1.10967 1.48467 1.01067 1.719 1 2V10.5ZM2 0H11.5C11.646 0 11.7658 0.0468333 11.8595 0.1405C11.9532 0.234167 12 0.354 12 0.5V11C12 11.146 11.9532 11.2658 11.8595 11.3595C11.7658 11.4532 11.646 11.5 11.5 11.5H0.5L0 12.4065V2C0.0103333 1.43733 0.205667 0.966 0.586 0.586C0.966333 0.206 1.43767 0.0106667 2 0ZM1.75 11.5C1.54167 11.5103 1.36717 11.5858 1.2265 11.7265C1.08583 11.8672 1.0155 12.0417 1.0155 12.25C1.0155 12.4583 1.08583 12.6328 1.2265 12.7735C1.36717 12.9142 1.54167 12.9897 1.75 13H11V11.5H1.75ZM1.75 10.5H12V13C11.9897 13.2813 11.8907 13.5157 11.703 13.703C11.5153 13.8903 11.281 13.9893 11 14H1.75C1.25 13.9897 0.836 13.8203 0.508 13.492C0.18 13.1637 0.0106667 12.7497 0 12.25C0.0103333 11.75 0.179667 11.336 0.508 11.008C0.836333 10.68 1.25033 10.5107 1.75 10.5ZM4 1V4.922L5.5 3.719L7 4.922V1H4ZM3 0H8V5.953C7.98967 6.16133 7.89333 6.30983 7.711 6.3985C7.52867 6.48717 7.35417 6.469 7.1875 6.344L5.5 5L3.8125 6.344C3.64583 6.469 3.47133 6.48717 3.289 6.3985C3.10667 6.30983 3.01033 6.16133 3 5.953V0Z" fill="#08080A" fill-opacity="0.96"/>
</svg>
