<svg width="20" height="20" viewBox="0 0 20 20" fill="none" xmlns="http://www.w3.org/2000/svg">
<rect x="1" y="1" width="18" height="18" rx="9" fill="black"/>
<rect x="1" y="1" width="18" height="18" rx="9" stroke="black" stroke-width="2"/>
<path d="M17 7.66L10.18 5H9.82L3 7.66V14H4V9L6.31 9.9C5.79973 10.6267 5.52405 11.4921 5.52 12.38C5.51012 12.4898 5.51012 12.6002 5.52 12.71V12.82L5.8 13.22L9.78 15H10.19L14.13 13.19L14.41 12.79V12.67C14.41 12.57 14.41 12.46 14.41 12.35C14.4043 11.467 14.1325 10.6061 13.63 9.88L17 8.57V7.66ZM13.48 12.34V12.41L10 14L6.5 12.4C6.49532 12.3803 6.49532 12.3597 6.5 12.34C6.50544 11.5693 6.76956 10.8227 7.25 10.22L9.83 11.22H10.19L12.75 10.22C13.226 10.8238 13.4834 11.5711 13.48 12.34V12.34ZM10 10.25L4.52 8.12L10 6L15.48 8.14L10 10.25Z" fill="#E4E4E4"/>
</svg>
