<?xml version="1.0" standalone="no"?>
<!DOCTYPE svg PUBLIC "-//W3C//DTD SVG 20010904//EN"
 "http://www.w3.org/TR/2001/REC-SVG-20010904/DTD/svg10.dtd">
<svg version="1.0" xmlns="http://www.w3.org/2000/svg"
 width="512.000000pt" height="512.000000pt" viewBox="0 0 512.000000 512.000000"
 preserveAspectRatio="xMidYMid meet">

<g transform="translate(0.000000,512.000000) scale(0.100000,-0.100000)"
fill="#fff" stroke="none">
<path d="M2380 4900 c-443 -35 -869 -198 -1240 -473 -121 -91 -355 -324 -446
-447 -258 -345 -403 -702 -465 -1140 -18 -127 -15 -462 5 -595 67 -437 227
-809 492 -1147 83 -106 304 -322 414 -404 331 -248 687 -396 1105 -459 206
-32 543 -22 754 21 84 18 102 27 125 65 22 38 20 70 -8 112 -13 19 -27 44 -31
56 -10 32 -54 61 -92 61 -18 0 -64 -15 -102 -34 -71 -36 -179 -76 -206 -76
-13 0 -15 60 -15 524 l0 524 106 4 c105 3 106 3 135 36 42 46 41 107 -2 148
-29 28 -35 29 -135 32 l-104 4 0 368 0 369 146 3 146 3 29 33 c22 24 29 42 29
72 0 30 -7 48 -29 72 l-29 33 -146 3 -146 3 0 370 0 369 484 0 484 0 26 -135
c37 -191 56 -362 65 -570 5 -121 12 -187 21 -201 31 -49 27 -49 498 -52 l443
-3 -6 -52 c-3 -29 -13 -109 -22 -178 -19 -146 -13 -175 41 -204 41 -22 94 -14
125 19 43 46 74 267 74 531 0 519 -158 987 -477 1415 -91 123 -325 356 -446
447 -409 304 -852 460 -1350 477 -80 2 -192 1 -250 -4z m70 -745 l0 -525 -450
0 c-247 0 -450 4 -450 8 0 4 20 62 45 127 180 475 454 795 765 896 100 33 90
90 90 -506z m301 509 c310 -92 592 -420 774 -899 25 -66 45 -123 45 -127 0 -4
-202 -8 -450 -8 l-450 0 0 525 c0 428 2 525 13 525 7 0 38 -7 68 -16z m-943
-121 c-130 -152 -221 -289 -301 -448 -71 -141 -80 -163 -137 -325 l-48 -135
-302 -3 -301 -2 21 37 c11 21 49 78 84 126 232 325 535 567 916 733 90 39 87
38 68 17z m1721 -88 c325 -163 607 -416 814 -730 l59 -90 -298 -3 c-164 -1
-301 1 -304 5 -4 5 -26 64 -49 133 -80 238 -250 552 -382 705 -23 28 -49 58
-57 67 -19 23 69 -12 217 -87z m-2269 -1057 c0 -7 -9 -58 -19 -113 -28 -147
-51 -332 -58 -482 l-6 -133 -373 0 -374 0 6 63 c18 197 62 396 130 580 l37 97
328 0 c257 0 329 -3 329 -12z m1190 -358 l0 -370 -530 0 -530 0 0 38 c0 123
29 362 67 565 l25 137 484 0 484 0 0 -370z m2104 273 c68 -184 112 -383 130
-581 l6 -62 -373 2 -372 3 -7 128 c-7 147 -31 339 -59 482 -10 55 -19 106 -19
113 0 9 72 12 329 12 l328 0 37 -97z m-3370 -1000 c8 -155 29 -331 57 -478 10
-55 19 -106 19 -112 0 -10 -72 -13 -329 -13 l-328 0 -37 98 c-68 183 -112 382
-130 580 l-6 62 374 0 373 0 7 -137z m1266 -233 l0 -370 -484 0 -484 0 -25
138 c-38 202 -67 441 -67 565 l0 37 530 0 530 0 0 -370z m-1081 -731 c87 -250
254 -557 383 -704 77 -88 77 -87 7 -59 -369 150 -701 413 -935 741 -35 48 -73
105 -84 126 l-21 37 301 -2 302 -3 47 -136z m1081 -384 c0 -428 -2 -525 -13
-525 -50 0 -200 64 -287 123 -241 163 -481 530 -595 905 l-6 22 450 0 451 0 0
-525z"/>
<path d="M3223 2395 c-60 -31 -85 -58 -109 -120 -16 -43 -15 -62 60 -827 43
-431 82 -799 87 -819 15 -60 50 -102 108 -132 117 -59 189 -30 340 138 57 63
105 114 106 113 1 -2 62 -88 134 -193 73 -104 149 -205 169 -222 61 -53 133
-76 227 -71 56 3 92 11 120 26 79 41 260 178 292 220 66 87 81 228 33 321 -12
24 -78 124 -147 223 -69 99 -121 183 -117 188 5 4 65 31 134 59 185 77 217
104 240 206 8 37 8 58 -4 99 -29 99 12 76 -961 541 -71 34 -226 108 -343 164
-251 121 -286 128 -369 86z m528 -399 c233 -112 501 -240 594 -285 94 -45 210
-101 258 -123 67 -32 84 -44 73 -50 -9 -5 -98 -43 -198 -83 -100 -41 -192 -85
-205 -97 -28 -26 -39 -78 -23 -109 7 -13 88 -132 180 -264 92 -132 170 -250
174 -263 16 -50 -11 -89 -112 -161 -53 -37 -107 -73 -119 -79 -33 -18 -77 -14
-106 8 -15 12 -103 131 -198 266 -94 134 -180 249 -191 255 -26 14 -80 14
-104 1 -11 -6 -82 -80 -159 -166 -77 -85 -143 -155 -146 -155 -3 -1 -15 99
-27 222 -12 122 -44 449 -72 727 -48 489 -54 560 -46 560 2 0 194 -92 427
-204z"/>
</g>
</svg>
