<?xml version="1.0" standalone="no"?>
<!DOCTYPE svg PUBLIC "-//W3C//DTD SVG 20010904//EN"
 "http://www.w3.org/TR/2001/REC-SVG-20010904/DTD/svg10.dtd">
<svg version="1.0" xmlns="http://www.w3.org/2000/svg"
 width="512.000000pt" height="512.000000pt" viewBox="0 0 512.000000 512.000000"
 preserveAspectRatio="xMidYMid meet">

<g transform="translate(0.000000,512.000000) scale(0.100000,-0.100000)"
fill="#fff" stroke="none">
<path d="M2589 5092 c-110 -57 -160 -194 -115 -312 4 -10 -116 -137 -382 -403
l-389 -389 -50 26 c-244 123 -534 -27 -585 -303 -14 -75 1 -170 38 -244 l26
-50 -388 -388 c-327 -327 -392 -388 -409 -381 -11 4 -54 7 -96 7 -67 0 -81 -4
-125 -30 -68 -42 -105 -105 -111 -189 -5 -57 -2 -72 21 -121 100 -204 387
-179 456 39 11 35 9 94 -5 156 -5 22 20 51 221 250 125 124 223 216 219 205
-88 -222 -154 -481 -176 -693 -17 -162 -7 -466 20 -617 60 -340 184 -653 366
-924 l72 -109 -64 -64 c-76 -74 -97 -110 -88 -147 8 -32 356 -385 396 -402 16
-6 39 -9 51 -6 13 4 110 94 216 200 186 188 193 196 190 231 -3 32 -25 58
-197 231 -233 234 -226 230 -325 135 l-63 -61 -59 88 c-164 246 -280 538 -336
848 -30 163 -33 543 -5 706 50 295 158 584 309 825 l51 81 46 -20 c30 -13 75
-22 128 -25 145 -8 268 49 355 163 75 98 99 258 58 375 -11 30 -19 58 -20 61
0 11 112 81 225 140 485 254 1062 317 1595 173 203 -55 455 -169 633 -288 l88
-59 -61 -63 c-95 -99 -99 -92 135 -325 173 -172 199 -194 231 -197 35 -3 43 4
231 190 106 106 196 203 200 216 3 12 0 35 -7 51 -16 40 -370 388 -402 396
-36 9 -72 -13 -146 -88 l-64 -64 -111 74 c-213 142 -482 262 -726 322 -221 56
-313 66 -586 66 -211 -1 -269 -4 -375 -22 -156 -28 -349 -80 -465 -127 -49
-20 -90 -35 -91 -33 -2 2 97 103 220 226 l224 224 45 -12 c60 -15 83 -14 144
4 139 41 208 215 136 346 -65 120 -204 164 -324 101z m166 -154 c37 -33 38
-93 1 -125 -56 -48 -136 -12 -136 62 0 73 80 110 135 63z m-1209 -1053 c177
-53 234 -283 103 -414 -48 -48 -103 -71 -174 -71 -114 0 -209 69 -240 174 -19
63 -19 80 1 146 21 72 82 135 154 160 67 23 92 24 156 5z m3264 -120 l115
-115 -118 -118 -117 -117 -117 117 -118 118 115 115 c63 63 117 115 120 115 3
0 57 -52 120 -115z m-4505 -1290 c50 -49 15 -135 -55 -135 -67 0 -107 93 -60
140 29 29 84 27 115 -5z m1285 -2160 l-120 -120 -117 118 -118 117 120 120
120 120 117 -117 118 -118 -120 -120z"/>
<path d="M2045 3400 c-11 -5 -89 -78 -174 -163 -127 -128 -154 -161 -154 -184
0 -24 799 -2037 838 -2114 12 -22 72 -48 452 -194 241 -92 444 -173 452 -180
7 -7 73 -132 145 -277 141 -282 156 -303 211 -283 37 14 1294 1273 1302 1304
13 54 -9 69 -294 211 l-272 135 -51 135 c-263 688 -293 761 -320 775 -38 20
-2026 815 -2075 830 -23 7 -49 9 -60 5z m1050 -570 c539 -215 981 -393 983
-395 3 -2 230 -590 297 -768 l18 -49 -444 -444 c-244 -244 -447 -444 -451
-444 -8 0 -808 307 -813 312 -2 2 -182 450 -400 996 l-398 994 22 21 21 22
516 -516 516 -516 -25 -44 c-53 -91 -72 -238 -43 -344 62 -234 295 -387 528
-347 256 44 432 286 390 534 -32 189 -165 336 -346 384 -107 29 -254 11 -345
-43 l-44 -25 -515 515 -516 516 19 21 c11 12 26 19 35 17 8 -2 456 -181 995
-397z m359 -766 c64 -22 147 -100 177 -166 35 -79 33 -183 -6 -261 -56 -113
-150 -172 -275 -171 -99 0 -163 28 -229 100 -64 70 -85 131 -79 228 13 205
215 337 412 270z m1291 -684 c77 -39 143 -75 147 -78 4 -4 -235 -250 -532
-547 -296 -296 -541 -537 -543 -535 -3 3 -48 92 -102 199 l-97 194 442 442
443 443 51 -24 c28 -13 114 -55 191 -94z"/>
</g>
</svg>
