<?xml version="1.0" standalone="no"?>
<!DOCTYPE svg PUBLIC "-//W3C//DTD SVG 20010904//EN"
 "http://www.w3.org/TR/2001/REC-SVG-20010904/DTD/svg10.dtd">
<svg version="1.0" xmlns="http://www.w3.org/2000/svg"
 width="512.000000pt" height="512.000000pt" viewBox="0 0 512.000000 512.000000"
 preserveAspectRatio="xMidYMid meet">

<g transform="translate(0.000000,512.000000) scale(0.100000,-0.100000)"
fill="#fff" stroke="none">
<path d="M285 4566 c-113 -28 -198 -98 -249 -206 l-31 -65 -3 -1593 c-2 -1526
-1 -1597 17 -1685 26 -130 71 -216 157 -304 53 -54 89 -81 145 -108 146 -69
-25 -65 2476 -65 l2261 0 31 26 31 26 0 1784 0 1785 -25 24 -24 25 -2165 0
-2164 0 -7 43 c-27 157 -136 279 -284 313 -67 16 -100 16 -166 0z m180 -155
c51 -23 93 -65 116 -116 18 -38 19 -104 19 -1461 l0 -1421 -62 31 c-56 28 -71
31 -158 31 -97 0 -99 -1 -223 -63 -4 -2 -6 639 -5 1425 l3 1428 22 42 c56 104
186 151 288 104z m4505 -2036 l0 -1685 -2252 2 -2253 3 -66 32 c-171 84 -280
290 -236 444 48 164 254 213 374 89 35 -36 48 -67 58 -142 4 -33 13 -53 28
-63 31 -22 80 -19 103 6 18 21 19 62 22 1510 l2 1489 2110 0 2110 0 0 -1685z"/>
<path d="M4103 3910 c-12 -5 -26 -18 -32 -29 -8 -14 -11 -402 -11 -1260 l0
-1241 132 -265 c118 -235 136 -266 163 -275 54 -19 70 5 180 261 55 129 106
244 113 256 9 17 12 305 12 1266 0 1210 -1 1245 -19 1268 -19 24 -20 24 -268
26 -136 1 -258 -2 -270 -7z m407 -275 l0 -135 -150 0 -150 0 0 135 0 135 150
0 150 0 0 -135z m0 -1225 l0 -940 -150 0 -150 0 0 940 0 940 150 0 150 0 0
-940z m-49 -1112 c-27 -69 -83 -194 -91 -202 -7 -7 -120 199 -120 219 0 3 49
5 110 5 l110 0 -9 -22z"/>
<path d="M1885 3599 c-457 -90 -784 -464 -811 -929 -10 -170 21 -318 102 -486
137 -282 448 -505 755 -540 l59 -7 0 -227 c0 -209 2 -230 19 -251 l19 -24 740
0 c714 0 741 1 761 19 21 19 21 19 21 761 0 741 0 742 -21 761 -19 17 -41 19
-250 22 -227 3 -229 3 -233 25 -37 206 -68 298 -145 423 -127 206 -327 358
-566 430 -78 23 -111 27 -245 30 -85 2 -177 -1 -205 -7z m385 -154 c305 -80
544 -326 614 -633 28 -125 81 -111 -420 -114 l-436 -3 -19 -24 c-18 -22 -19
-45 -19 -456 l0 -434 -37 6 c-366 51 -655 331 -719 694 -79 452 234 897 688
979 75 13 272 5 348 -15z m630 -923 c0 -52 -40 -185 -80 -266 -123 -254 -367
-431 -647 -470 l-43 -6 0 385 0 385 385 0 385 0 0 -28z m500 -607 l0 -635
-635 0 -635 0 0 180 0 180 34 0 c49 0 216 44 288 77 232 102 425 296 518 520
30 72 62 188 75 276 l6 37 174 0 175 0 0 -635z"/>
</g>
</svg>
