<?xml version="1.0" standalone="no"?>
<!DOCTYPE svg PUBLIC "-//W3C//DTD SVG 20010904//EN"
 "http://www.w3.org/TR/2001/REC-SVG-20010904/DTD/svg10.dtd">
<svg version="1.0" xmlns="http://www.w3.org/2000/svg"
 width="512.000000pt" height="512.000000pt" viewBox="0 0 512.000000 512.000000"
 preserveAspectRatio="xMidYMid meet">

<g transform="translate(0.000000,512.000000) scale(0.100000,-0.100000)"
fill="#fff" stroke="none">
<path d="M931 4394 c-149 -40 -300 -159 -369 -291 -40 -76 -72 -198 -72 -272
1 -195 112 -399 271 -497 53 -33 59 -40 59 -70 0 -31 -20 -50 -307 -299 -170
-147 -318 -278 -330 -292 -49 -52 -50 -50 328 -505 193 -233 364 -435 380
-450 38 -36 81 -37 114 -3 l25 24 0 286 0 286 -112 121 -112 121 59 53 60 54
184 0 184 0 68 -51 c38 -28 69 -55 69 -60 0 -5 -47 -58 -104 -118 -92 -95
-105 -113 -111 -152 -3 -24 -5 -155 -3 -291 3 -245 3 -247 27 -272 35 -37 79
-35 118 6 18 18 187 220 377 448 316 380 346 418 346 452 0 36 -7 43 -340 333
l-340 297 0 44 c0 24 4 44 8 44 17 0 121 102 149 145 l28 45 752 0 753 0 41
-44 c22 -25 62 -59 89 -76 45 -29 62 -53 210 -306 l162 -275 -20 -47 c-25 -58
-48 -149 -57 -223 l-6 -57 -255 -243 -256 -244 -85 -2 c-281 -7 -516 -179
-608 -443 l-30 -85 -3 -360 c-3 -355 -3 -361 18 -388 l21 -27 610 0 610 0 24
25 25 24 0 273 0 273 257 240 257 240 110 -3 c143 -5 231 14 355 74 83 40 109
59 186 138 99 100 146 177 187 306 33 108 33 292 0 400 -46 144 -119 256 -231
353 -68 59 -211 132 -291 149 l-60 12 -175 284 c-168 272 -175 286 -175 336 0
289 -280 529 -568 487 -97 -14 -202 -64 -275 -131 l-55 -50 -765 0 -765 0 -22
35 c-53 86 -204 188 -326 219 -76 20 -220 20 -293 0z m270 -160 c108 -32 218
-127 265 -229 99 -216 5 -465 -213 -568 -124 -58 -285 -47 -401 27 -140 89
-223 272 -194 426 39 214 207 358 418 359 39 1 95 -6 125 -15z m2435 -98 c71
-33 135 -94 169 -163 26 -51 29 -69 29 -148 0 -79 -3 -97 -29 -148 -82 -165
-278 -237 -442 -163 -166 75 -245 263 -182 433 23 60 88 138 144 173 86 53
215 60 311 16z m-624 -188 c-4 -18 -7 -84 -6 -146 l0 -112 -675 2 -676 3 5 40
c7 61 6 145 -3 198 l-8 47 685 0 686 0 -8 -32z m1040 -554 l104 -171 -75 -17
c-131 -31 -243 -91 -343 -184 l-47 -43 -15 23 c-28 44 -184 313 -182 315 1 1
32 7 69 13 142 22 263 93 335 195 20 29 40 50 43 47 3 -4 53 -84 111 -178z
m-2812 -354 l0 -220 -130 0 -130 0 0 213 0 212 82 -3 c46 -2 101 1 123 6 22 6
43 10 48 11 4 1 7 -98 7 -219z m3167 -5 c152 -48 262 -145 334 -291 182 -374
-90 -804 -511 -804 -227 0 -439 149 -518 363 -101 271 14 569 271 698 128 65
286 78 424 34z m-2799 -177 c108 -94 216 -189 240 -210 l43 -39 -252 -302
c-138 -166 -255 -303 -260 -305 -5 -2 -9 52 -9 120 l0 124 130 136 c71 75 132
148 136 163 9 37 -12 63 -131 155 l-105 81 0 125 c0 68 3 124 6 124 3 0 94
-77 202 -172z m-788 35 l-1 -118 -104 -88 c-100 -83 -105 -90 -105 -126 0 -36
9 -48 130 -174 l130 -135 0 -132 0 -132 -256 307 c-140 168 -254 311 -252 317
5 13 439 396 451 397 4 1 7 -52 7 -116z m2765 -698 c59 -130 156 -237 284
-316 l55 -33 -125 -118 c-68 -65 -149 -141 -181 -168 l-56 -50 -17 54 c-47
150 -174 302 -312 373 l-54 28 178 172 c164 157 179 169 187 150 5 -12 24 -53
41 -92z m-545 -361 c156 -35 292 -159 352 -320 20 -55 22 -81 26 -351 l4 -293
-496 0 -496 0 0 264 c0 145 5 287 10 317 34 179 188 340 366 383 79 19 151 19
234 0z"/>
<path d="M1017 4110 c-62 -16 -112 -47 -155 -95 -164 -187 -32 -478 218 -478
111 0 206 58 258 157 22 43 27 64 27 131 0 67 -5 88 -27 131 -61 116 -201 183
-321 154z m106 -164 c57 -24 82 -61 82 -121 0 -46 -4 -58 -29 -84 -36 -38 -84
-53 -129 -40 -118 32 -132 190 -22 240 48 22 57 23 98 5z"/>
<path d="M3431 4059 c-175 -53 -231 -280 -101 -406 51 -49 96 -67 170 -67 78
0 132 24 182 84 128 149 31 381 -166 396 -28 2 -66 -1 -85 -7z m132 -180 c20
-24 22 -77 4 -100 -34 -44 -103 -47 -132 -6 -25 36 -19 92 12 117 34 27 89 22
116 -11z"/>
<path d="M4135 2867 c-113 -38 -194 -106 -242 -205 -25 -51 -28 -67 -28 -162
0 -94 3 -111 28 -161 34 -70 119 -152 192 -185 182 -84 399 -3 493 182 94 185
5 424 -188 512 -67 30 -193 39 -255 19z m191 -166 c22 -10 57 -37 77 -61 88
-103 66 -242 -52 -325 -37 -26 -51 -30 -109 -30 -83 0 -142 30 -186 93 -42 59
-48 150 -16 217 51 105 181 154 286 106z"/>
<path d="M2819 1702 c-287 -95 -340 -471 -90 -636 67 -45 117 -59 201 -59 131
1 257 81 316 200 24 51 28 70 28 153 1 115 -17 163 -94 244 -94 99 -238 138
-361 98z m216 -179 c116 -81 111 -253 -9 -328 -165 -101 -357 74 -277 251 20
44 72 90 118 104 48 16 124 3 168 -27z"/>
</g>
</svg>
